<svg xmlns="http://www.w3.org/2000/svg" width="29.044" height="42.327" viewBox="0 0 29.044 42.327">
  <g id="Group_74839" data-name="Group 74839" transform="translate(-18.7 -12.059)">
    <g id="hot-air-balloon" transform="translate(-61.633 12.059)">
      <path id="Path_243916" data-name="Path 243916" d="M175.281,386.3h-.088v-2.833h-2.48V386.3h-8.146v-2.833h-2.48V386.3a1.242,1.242,0,1,0,0,2.48v4.073a1.24,1.24,0,0,0,1.24,1.24h10.626a1.24,1.24,0,0,0,1.24-1.24v-4.073a1.241,1.241,0,1,0,.088-2.48Z" transform="translate(-73.785 -351.765)" fill="#3f8cf4"/>
      <path id="Path_243917" data-name="Path 243917" d="M91.7,29.221c-1.168-3.059-3.393-9.561-3.393-14.7C88.3,6.781,90.855,0,94.855,0A14.539,14.539,0,0,0,80.333,14.522c0,4.87,3.817,10.852,6.267,14.191a1.24,1.24,0,0,0,1,.507Z" transform="translate(0 0)" fill="#64baff"/>
      <path id="Path_243918" data-name="Path 243918" d="M262.553,14.522c0,5.138-2.225,11.64-3.393,14.7h4.095a1.241,1.241,0,0,0,1-.507c2.45-3.339,6.267-9.322,6.267-14.191A14.539,14.539,0,0,0,256,0C260,0,262.553,6.781,262.553,14.522Z" transform="translate(-161.145)" fill="#64baff"/>
      <path id="Path_243919" data-name="Path 243919" d="M210.806,30c-1.559,0-4.073,4.377-4.073,12.042,0,5.244,2.66,12.389,3.578,14.7h.99c.918-2.309,3.578-9.455,3.578-14.7C214.879,34.47,212.4,30,210.806,30Z" transform="translate(-115.951 -27.52)" fill="#64baff"/>
    </g>
  </g>
</svg>
