<svg xmlns="http://www.w3.org/2000/svg" width="33.134" height="33.309" viewBox="0 0 33.134 33.309">
  <g id="Group_74841" data-name="Group 74841" transform="translate(-16.655 -18.038)">
    <g id="Group_74832" data-name="Group 74832" transform="translate(-3642.594 -18534.943)">
      <g id="Airplane" transform="translate(3656.807 18550.619)">
        <path id="Path_243920" data-name="Path 243920" d="M5.366,10.185A1.221,1.221,0,0,1,5.2,8.324L8.871,4.652a1.221,1.221,0,0,1,1.243-.3l6.053,1.971L9.441,13.048ZM31.829,21.746l-6.8,6.8L28.084,32.9a1.222,1.222,0,0,0,.894.514c.034,0,.071,0,.105,0a1.217,1.217,0,0,0,.863-.358l3.672-3.672a1.221,1.221,0,0,0,.3-1.242ZM23.6,26.522l7.382-7.38-1.435-4.4a1.259,1.259,0,0,0-.1-.173l3.86-3.859c2.4-2.4,2.988-5.72,1.319-7.388a3.455,3.455,0,0,0-2.511-.957,7.247,7.247,0,0,0-4.875,2.282L23.218,8.669A1.2,1.2,0,0,0,23,8.549L18.771,7.173l-7.3,7.3,3.489,2.453-2.531,2.533L7.783,17.514a.608.608,0,0,0-.668.131l-4.494,4.5a.613.613,0,0,0-.172.523.6.6,0,0,0,.317.448l8.091,4.3L15,35.342a.611.611,0,0,0,.448.321.594.594,0,0,0,.093.007.614.614,0,0,0,.432-.178l4.369-4.366a.608.608,0,0,0,.134-.661l-1.992-4.938,2.594-2.592Z" transform="translate(0 0)" fill="#64baff"/>
      </g>
      <g id="Airplane-2" data-name="Airplane" transform="translate(3656.807 18550.619)">
        <path id="Path_243920-2" data-name="Path 243920" d="M23.6,26.522l7.382-7.38-1.435-4.4a1.259,1.259,0,0,0-.1-.173l3.86-3.859c2.4-2.4,2.988-5.72,1.319-7.388a3.455,3.455,0,0,0-2.511-.957,7.247,7.247,0,0,0-4.875,2.282L23.218,8.669A1.2,1.2,0,0,0,23,8.549L18.771,7.173l-7.3,7.3,3.489,2.453-2.531,2.533L7.783,17.514a.608.608,0,0,0-.668.131l-4.494,4.5a.613.613,0,0,0-.172.523.6.6,0,0,0,.317.448l8.091,4.3L15,35.342a.611.611,0,0,0,.448.321.594.594,0,0,0,.093.007.614.614,0,0,0,.432-.178l4.369-4.366a.608.608,0,0,0,.134-.661l-1.992-4.938,2.594-2.592Z" transform="translate(0 0)" fill="#3f8cf4"/>
      </g>
    </g>
  </g>
</svg>
