<svg xmlns="http://www.w3.org/2000/svg" xmlns:xlink="http://www.w3.org/1999/xlink" width="37.887" height="37.902" viewBox="0 0 37.887 37.902">
  <defs>
    <clipPath id="clip-path">
      <path id="ship-side" d="M33.135,18.956H24.681a4.883,4.883,0,0,0-2.711.822L18.875,21.84a1.58,1.58,0,0,1-.877.265H1.58A1.58,1.58,0,0,0,0,23.685V36.323A1.58,1.58,0,0,0,1.58,37.9H19.8A18.909,18.909,0,0,0,37.669,25.088a4.714,4.714,0,0,0-4.534-6.132ZM6.319,31.593a1.58,1.58,0,1,1,1.58-1.58A1.58,1.58,0,0,1,6.319,31.593Zm6.319,0a1.58,1.58,0,1,1,1.58-1.58A1.58,1.58,0,0,1,12.637,31.593Zm6.319,0a1.58,1.58,0,1,1,1.58-1.58A1.58,1.58,0,0,1,18.956,31.593ZM1.58,18.956A4.679,4.679,0,0,0,0,19.247v-5.03H15.8a1.58,1.58,0,1,0,0-3.159H0V7.679A1.58,1.58,0,0,1,1.58,6.1H5.358L4.851,4.175A3.327,3.327,0,0,1,8.067,0h0a3.328,3.328,0,0,1,3.218,2.478L12.233,6.1H15.8a7.961,7.961,0,0,1,5.022,1.8,40.269,40.269,0,0,1,7.014,7.9H24.714a8.252,8.252,0,0,0-4.458,1.327l-2.734,1.832Z" transform="translate(0)" fill="#3f8cf4"/>
    </clipPath>
  </defs>
  <g id="Group_74838" data-name="Group 74838" transform="translate(-15.465 -13.441)">
    <g id="Mask_Group_72624" data-name="Mask Group 72624" transform="translate(15.465 13.441)" clip-path="url(#clip-path)">
      <path id="ship-side-2" data-name="ship-side" d="M33.135,18.956H24.681a4.883,4.883,0,0,0-2.711.822L18.875,21.84a1.58,1.58,0,0,1-.877.265H1.58A1.58,1.58,0,0,0,0,23.685V36.323A1.58,1.58,0,0,0,1.58,37.9H19.8A18.909,18.909,0,0,0,37.669,25.088a4.714,4.714,0,0,0-4.534-6.132ZM6.319,31.593a1.58,1.58,0,1,1,1.58-1.58A1.58,1.58,0,0,1,6.319,31.593Zm6.319,0a1.58,1.58,0,1,1,1.58-1.58A1.58,1.58,0,0,1,12.637,31.593Zm6.319,0a1.58,1.58,0,1,1,1.58-1.58A1.58,1.58,0,0,1,18.956,31.593ZM1.58,18.956A4.679,4.679,0,0,0,0,19.247v-5.03H15.8a1.58,1.58,0,1,0,0-3.159H0V7.679A1.58,1.58,0,0,1,1.58,6.1H5.358L4.851,4.175A3.327,3.327,0,0,1,8.067,0h0a3.328,3.328,0,0,1,3.218,2.478L12.233,6.1H15.8a7.961,7.961,0,0,1,5.022,1.8,40.269,40.269,0,0,1,7.014,7.9H24.714a8.252,8.252,0,0,0-4.458,1.327l-2.734,1.832Z" transform="translate(0)" fill="#3f8cf4"/>
      <path id="Path_243910" data-name="Path 243910" d="M-4142,7115.747l2.751-13.068,7.909-4.642,10.489,1.89,7.049,5.847,4.985,6.534,1.376,3.439,1.2,2.234h-7.565l-7.049,3.44-18.4.859Z" transform="translate(4137.808 -7101.083)" fill="#64baff"/>
    </g>
  </g>
</svg>
