<svg xmlns="http://www.w3.org/2000/svg" xmlns:xlink="http://www.w3.org/1999/xlink" width="36.246" height="36.245" viewBox="0 0 36.246 36.245">
  <defs>
    <clipPath id="clip-path">
      <path id="building" d="M13.592,0H7.551A7.551,7.551,0,0,0,0,7.551V28.694a7.551,7.551,0,0,0,7.551,7.551H21.143V7.551A7.551,7.551,0,0,0,13.592,0ZM7.551,28.694H6.041a1.51,1.51,0,1,1,0-3.02h1.51a1.51,1.51,0,1,1,0,3.02Zm0-6.041H6.041a1.51,1.51,0,1,1,0-3.02h1.51a1.51,1.51,0,1,1,0,3.02Zm0-6.041H6.041a1.51,1.51,0,1,1,0-3.02h1.51a1.51,1.51,0,1,1,0,3.02Zm0-6.041H6.041a1.51,1.51,0,1,1,0-3.02h1.51a1.51,1.51,0,1,1,0,3.02ZM15.1,28.694h-1.51a1.51,1.51,0,1,1,0-3.02H15.1a1.51,1.51,0,1,1,0,3.02Zm0-6.041h-1.51a1.51,1.51,0,1,1,0-3.02H15.1a1.51,1.51,0,1,1,0,3.02Zm0-6.041h-1.51a1.51,1.51,0,1,1,0-3.02H15.1a1.51,1.51,0,1,1,0,3.02Zm0-6.041h-1.51a1.51,1.51,0,1,1,0-3.02H15.1a1.51,1.51,0,1,1,0,3.02Zm13.592-3.02H24.164V36.245h4.531a7.56,7.56,0,0,0,7.551-7.551V15.1a7.56,7.56,0,0,0-7.551-7.551ZM30.2,28.694a1.51,1.51,0,1,1,1.51-1.51A1.51,1.51,0,0,1,30.2,28.694Zm0-6.041a1.51,1.51,0,1,1,1.51-1.51A1.51,1.51,0,0,1,30.2,22.653Zm0-6.041a1.51,1.51,0,1,1,1.51-1.51A1.51,1.51,0,0,1,30.2,16.612Z" transform="translate(0 0)" fill="#3f8cf4"/>
    </clipPath>
  </defs>
  <g id="Group_74834" data-name="Group 74834" transform="translate(-15.943 -15.1)">
    <g id="Mask_Group_72620" data-name="Mask Group 72620" transform="translate(15.943 15.1)" clip-path="url(#clip-path)">
      <path id="building-2" data-name="building" d="M13.592,0H7.551A7.551,7.551,0,0,0,0,7.551V28.694a7.551,7.551,0,0,0,7.551,7.551H21.143V7.551A7.551,7.551,0,0,0,13.592,0ZM7.551,28.694H6.041a1.51,1.51,0,1,1,0-3.02h1.51a1.51,1.51,0,1,1,0,3.02Zm0-6.041H6.041a1.51,1.51,0,1,1,0-3.02h1.51a1.51,1.51,0,1,1,0,3.02Zm0-6.041H6.041a1.51,1.51,0,1,1,0-3.02h1.51a1.51,1.51,0,1,1,0,3.02Zm0-6.041H6.041a1.51,1.51,0,1,1,0-3.02h1.51a1.51,1.51,0,1,1,0,3.02ZM15.1,28.694h-1.51a1.51,1.51,0,1,1,0-3.02H15.1a1.51,1.51,0,1,1,0,3.02Zm0-6.041h-1.51a1.51,1.51,0,1,1,0-3.02H15.1a1.51,1.51,0,1,1,0,3.02Zm0-6.041h-1.51a1.51,1.51,0,1,1,0-3.02H15.1a1.51,1.51,0,1,1,0,3.02Zm0-6.041h-1.51a1.51,1.51,0,1,1,0-3.02H15.1a1.51,1.51,0,1,1,0,3.02Zm13.592-3.02H24.164V36.245h4.531a7.56,7.56,0,0,0,7.551-7.551V15.1a7.56,7.56,0,0,0-7.551-7.551ZM30.2,28.694a1.51,1.51,0,1,1,1.51-1.51A1.51,1.51,0,0,1,30.2,28.694Zm0-6.041a1.51,1.51,0,1,1,1.51-1.51A1.51,1.51,0,0,1,30.2,22.653Zm0-6.041a1.51,1.51,0,1,1,1.51-1.51A1.51,1.51,0,0,1,30.2,16.612Z" transform="translate(0 0)" fill="#3f8cf4"/>
      <rect id="Rectangle_24013" data-name="Rectangle 24013" width="20.675" height="44.452" transform="translate(22.944 -3.075)" fill="#64baff"/>
    </g>
  </g>
</svg>
