<svg xmlns="http://www.w3.org/2000/svg" xmlns:xlink="http://www.w3.org/1999/xlink" width="27.19" height="36.246" viewBox="0 0 27.19 36.246">
  <defs>
    <clipPath id="clip-path">
      <path id="train" d="M16.592,21.144c6.458,0,11.529-9.5,13.086-15.186a7.5,7.5,0,0,0-4.742-4.513A27.682,27.682,0,0,0,16.592,0,27.739,27.739,0,0,0,8.248,1.444,7.506,7.506,0,0,0,3.506,5.958C5.063,11.641,10.134,21.144,16.592,21.144ZM13.572,4.531h6.041a1.51,1.51,0,1,1,0,3.021H13.572a1.51,1.51,0,1,1,0-3.021Zm16.613,8.435c-2.856,5.645-7.6,11.2-13.592,11.2S5.856,18.611,3,12.966V24.431a7.551,7.551,0,0,0,2,5.119L3.115,34.163a1.51,1.51,0,1,0,2.8,1.143l1.62-3.977a20.514,20.514,0,0,0,9.062,1.9,20.5,20.5,0,0,0,9.062-1.9l1.627,3.976a1.511,1.511,0,0,0,2.8-1.143L28.19,29.551a7.551,7.551,0,0,0,2-5.12ZM16.592,30.205a1.51,1.51,0,1,1,1.51-1.51A1.51,1.51,0,0,1,16.592,30.205Z" transform="translate(-3 0)" fill="#3f8cf4"/>
    </clipPath>
  </defs>
  <g id="Group_74836" data-name="Group 74836" transform="translate(-19.627 -15.1)">
    <g id="Mask_Group_72627" data-name="Mask Group 72627" transform="translate(19.627 15.1)" clip-path="url(#clip-path)">
      <path id="train-2" data-name="train" d="M16.592,21.144c6.458,0,11.529-9.5,13.086-15.186a7.5,7.5,0,0,0-4.742-4.513A27.682,27.682,0,0,0,16.592,0,27.739,27.739,0,0,0,8.248,1.444,7.506,7.506,0,0,0,3.506,5.958C5.063,11.641,10.134,21.144,16.592,21.144ZM13.572,4.531h6.041a1.51,1.51,0,1,1,0,3.021H13.572a1.51,1.51,0,1,1,0-3.021Zm16.613,8.435c-2.856,5.645-7.6,11.2-13.592,11.2S5.856,18.611,3,12.966V24.431a7.551,7.551,0,0,0,2,5.119L3.115,34.163a1.51,1.51,0,1,0,2.8,1.143l1.62-3.977a20.514,20.514,0,0,0,9.062,1.9,20.5,20.5,0,0,0,9.062-1.9l1.627,3.976a1.511,1.511,0,0,0,2.8-1.143L28.19,29.551a7.551,7.551,0,0,0,2-5.12ZM16.592,30.205a1.51,1.51,0,1,1,1.51-1.51A1.51,1.51,0,0,1,16.592,30.205Z" transform="translate(-3 0)" fill="#3f8cf4"/>
      <path id="Path_243913" data-name="Path 243913" d="M-3814.3,7000.284l4.3,2.986,4.182,6.69,5.972,3.226h5.256l5.376-5.137,4.062-6.452,2.628-1.313,1.075,28.551-34.883.836Z" transform="translate(3811.849 -6990.65)" fill="#64baff"/>
    </g>
  </g>
</svg>
