<?xml version="1.0" standalone="no"?>
<!DOCTYPE svg PUBLIC "-//W3C//DTD SVG 20010904//EN"
 "http://www.w3.org/TR/2001/REC-SVG-20010904/DTD/svg10.dtd">
<svg version="1.0" xmlns="http://www.w3.org/2000/svg"
 width="4500.000000pt" height="4500.000000pt" viewBox="0 0 4500.000000 4500.000000"
 preserveAspectRatio="xMidYMid meet">

<g transform="translate(0.000000,4500.000000) scale(0.100000,-0.100000)"
fill="#000000" stroke="none">
<path d="M2705 24215 c-148 -7 -271 -13 -273 -14 -2 0 75 -70 170 -155 95 -84
237 -222 316 -305 l142 -151 0 320 0 320 -42 -2 c-24 0 -164 -7 -313 -13z"/>
<path d="M14960 24163 c0 -20 3 -33 8 -27 4 5 18 21 31 37 l24 27 -31 0 c-30
0 -32 -2 -32 -37z"/>
<path d="M14340 20430 l0 -220 615 0 615 0 0 -1560 0 -1560 245 0 245 0 0
1560 0 1560 615 0 615 0 0 220 0 220 -1475 0 -1475 0 0 -220z"/>
<path d="M8475 20184 c-165 -107 -356 -231 -424 -276 l-123 -80 112 -75 c221
-147 1091 -673 1114 -673 3 0 6 245 6 545 l0 544 -87 53 c-49 29 -123 77 -166
106 -48 32 -88 52 -105 52 -18 -1 -129 -68 -327 -196z"/>
<path d="M31775 15925 c-84 -15 -180 -48 -215 -74 -14 -10 -26 -30 -28 -44 -3
-22 3 -30 30 -43 30 -14 40 -14 84 -2 144 41 226 -58 255 -308 7 -69 5 -120
-11 -262 -23 -198 -94 -672 -110 -732 -12 -43 -37 -66 -137 -124 -201 -117
-433 -354 -528 -537 -54 -104 -75 -181 -75 -269 0 -184 90 -290 255 -298 269
-14 488 302 700 1011 30 101 12 87 210 162 l110 42 3 39 c2 22 -1 55 -5 75
l-8 37 -118 -36 c-64 -19 -119 -33 -122 -31 -2 3 2 29 10 59 31 113 84 390
100 519 13 99 16 181 13 310 -4 158 -8 184 -32 255 -69 202 -193 284 -381 251z
m-35 -1724 c0 -25 -68 -199 -121 -309 -131 -276 -231 -419 -303 -438 -38 -9
-74 3 -93 32 -36 56 15 211 119 361 67 97 215 246 309 312 72 51 89 59 89 42z"/>
</g>
</svg>
