<svg xmlns="http://www.w3.org/2000/svg" xmlns:xlink="http://www.w3.org/1999/xlink" width="36.239" height="36.245" viewBox="0 0 36.239 36.245">
  <defs>
    <clipPath id="clip-path">
      <path id="bus-alt" d="M27.179,24.157h6.04v1.51a7.519,7.519,0,0,1-3.02,6v.793a3.775,3.775,0,0,1-7.473.755H13.515a3.775,3.775,0,0,1-7.476-.755v-.793a7.519,7.519,0,0,1-3.02-6v-1.51H9.06v1.51a1.51,1.51,0,0,0,3.02,0v-1.51h12.08v1.51a1.51,1.51,0,0,0,3.02,0ZM13.589,4.528h9.06a1.51,1.51,0,0,1,1.51,1.51h8.273A8.909,8.909,0,0,0,26.273.88,38.314,38.314,0,0,0,9.966.88,8.909,8.909,0,0,0,3.807,6.038H12.08A1.51,1.51,0,0,1,13.589,4.528Zm19.629,9.06v-3.9c0-.216-.039-.421-.053-.634H3.073c-.014.213-.053.418-.053.634v3.9A3.02,3.02,0,0,0,0,16.608v1.51a3.02,3.02,0,0,0,3.02,3.02h30.2a3.02,3.02,0,0,0,3.02-3.02v-1.51A3.02,3.02,0,0,0,33.219,13.588Z" transform="translate(0 -0.003)" fill="#3f8cf4"/>
    </clipPath>
  </defs>
  <g id="Group_74835" data-name="Group 74835" transform="translate(-15.093 -15.1)">
    <g id="Mask_Group_72621" data-name="Mask Group 72621" transform="translate(15.093 15.1)" clip-path="url(#clip-path)">
      <path id="bus-alt-2" data-name="bus-alt" d="M27.179,24.157h6.04v1.51a7.519,7.519,0,0,1-3.02,6v.793a3.775,3.775,0,0,1-7.473.755H13.515a3.775,3.775,0,0,1-7.476-.755v-.793a7.519,7.519,0,0,1-3.02-6v-1.51H9.06v1.51a1.51,1.51,0,0,0,3.02,0v-1.51h12.08v1.51a1.51,1.51,0,0,0,3.02,0ZM13.589,4.528h9.06a1.51,1.51,0,0,1,1.51,1.51h8.273A8.909,8.909,0,0,0,26.273.88,38.314,38.314,0,0,0,9.966.88,8.909,8.909,0,0,0,3.807,6.038H12.08A1.51,1.51,0,0,1,13.589,4.528Zm19.629,9.06v-3.9c0-.216-.039-.421-.053-.634H3.073c-.014.213-.053.418-.053.634v3.9A3.02,3.02,0,0,0,0,16.608v1.51a3.02,3.02,0,0,0,3.02,3.02h30.2a3.02,3.02,0,0,0,3.02-3.02v-1.51A3.02,3.02,0,0,0,33.219,13.588Z" transform="translate(0 -0.003)" fill="#3f8cf4"/>
      <rect id="Rectangle_24014" data-name="Rectangle 24014" width="46.521" height="10.338" transform="translate(-5.983 -3.075)" fill="#64baff"/>
    </g>
  </g>
</svg>
