<svg xmlns="http://www.w3.org/2000/svg" xmlns:xlink="http://www.w3.org/1999/xlink" width="36.019" height="34.39" viewBox="0 0 36.019 34.39">
  <defs>
    <clipPath id="clip-path">
      <path id="car-alt" d="M0,15.983V12.231A2.251,2.251,0,0,1,2.251,9.98h1.5A41.011,41.011,0,0,1,7.034,4.05,5.829,5.829,0,0,1,10,2.013c2.643-1.285,13.37-1.285,16.013,0A5.829,5.829,0,0,1,28.984,4.05a41.011,41.011,0,0,1,3.282,5.93h1.5a2.251,2.251,0,0,1,2.251,2.251v3.752a136.024,136.024,0,0,0-18.009-1.5A136.026,136.026,0,0,0,0,15.983Zm36.019,3.036v2.967a6,6,0,0,1-6,6H6a6,6,0,0,1-6-6V19.025a136.32,136.32,0,0,1,18.009-1.541,136.322,136.322,0,0,1,18.009,1.541ZM9,23.487a1.5,1.5,0,1,0-1.5,1.5A1.5,1.5,0,0,0,9,23.487Zm21.011,0a1.5,1.5,0,1,0-1.5,1.5A1.5,1.5,0,0,0,30.015,23.487Zm-19.6,7.5c.881,5.934-8.212,5.931-7.33,0Zm22.512,0c.881,5.934-8.212,5.931-7.33,0Z" transform="translate(0 -1.05)" fill="#3f8cf4"/>
    </clipPath>
  </defs>
  <g id="Group_74837" data-name="Group 74837" transform="translate(-15.213 -16.027)">
    <g id="Mask_Group_72629" data-name="Mask Group 72629" transform="translate(15.213 16.027)" clip-path="url(#clip-path)">
      <path id="car-alt-2" data-name="car-alt" d="M0,15.983V12.231A2.251,2.251,0,0,1,2.251,9.98h1.5A41.011,41.011,0,0,1,7.034,4.05,5.829,5.829,0,0,1,10,2.013c2.643-1.285,13.37-1.285,16.013,0A5.829,5.829,0,0,1,28.984,4.05a41.011,41.011,0,0,1,3.282,5.93h1.5a2.251,2.251,0,0,1,2.251,2.251v3.752a136.024,136.024,0,0,0-18.009-1.5A136.026,136.026,0,0,0,0,15.983Zm36.019,3.036v2.967a6,6,0,0,1-6,6H6a6,6,0,0,1-6-6V19.025a136.32,136.32,0,0,1,18.009-1.541,136.322,136.322,0,0,1,18.009,1.541ZM9,23.487a1.5,1.5,0,1,0-1.5,1.5A1.5,1.5,0,0,0,9,23.487Zm21.011,0a1.5,1.5,0,1,0-1.5,1.5A1.5,1.5,0,0,0,30.015,23.487Zm-19.6,7.5c.881,5.934-8.212,5.931-7.33,0Zm22.512,0c.881,5.934-8.212,5.931-7.33,0Z" transform="translate(0 -1.05)" fill="#3f8cf4"/>
      <path id="Path_243915" data-name="Path 243915" d="M-4060.145,7120.817l8.832-1.484,12.219-.967,10.768.967,9.679,1.484-3.75-15.518-19.6-7.017-15.365,8.468Z" transform="translate(4057.256 -7103.623)" fill="#64baff"/>
    </g>
  </g>
</svg>
